# Blender 4.4.3
# www.blender.org
mtllib cmoudik-C9.mtl
o Plane
v -0.327561 1.000000 -0.000000
v -1.000000 0.556303 -0.000000
v 0.512162 1.000000 -0.000000
v 1.000000 0.143852 -0.000000
v 1.000000 -0.232065 0.000000
v -1.000000 -0.043694 0.000000
v -0.350789 -1.000000 0.000000
v -0.814992 -0.696304 0.000000
v 0.672566 -0.891480 0.000000
vn -0.0000 -0.0000 1.0000
vt 0.000000 0.478153
vt 0.092504 0.151848
vt 0.324605 0.000000
vt 0.836283 0.054260
vt 1.000000 0.383967
vt 1.000000 0.571926
vt 0.756081 1.000000
vt 0.336220 1.000000
vt 0.000000 0.778152
s 1
usemtl Material.003
f 6/1/1 8/2/1 7/3/1 9/4/1 5/5/1 4/6/1 3/7/1 1/8/1 2/9/1
